<mxfile host="Electron" agent="Mozilla/5.0 (Windows NT 10.0; Win64; x64) AppleWebKit/537.36 (KHTML, like Gecko) draw.io/27.0.9 Chrome/134.0.6998.205 Electron/35.4.0 Safari/537.36" version="27.0.9">
  <diagram name="Page-1" id="ssI6ALyQ7dgXXuQYcH_g">
    <mxGraphModel dx="1048" dy="643" grid="1" gridSize="10" guides="1" tooltips="1" connect="1" arrows="1" fold="1" page="1" pageScale="1" pageWidth="1100" pageHeight="850" math="0" shadow="0">
      <root>
        <mxCell id="0" />
        <mxCell id="1" parent="0" />
        <mxCell id="dU-7Wj_MFPhN0eYo4g7a-1" value="" style="rounded=0;whiteSpace=wrap;html=1;fillColor=none;dashed=1;strokeColor=light-dark(#a19b9b, #ededed);" vertex="1" parent="1">
          <mxGeometry x="55" y="140" width="150" height="520" as="geometry" />
        </mxCell>
        <mxCell id="dU-7Wj_MFPhN0eYo4g7a-2" value="" style="rounded=0;whiteSpace=wrap;html=1;fillColor=none;dashed=1;strokeColor=light-dark(#a19b9b, #ededed);" vertex="1" parent="1">
          <mxGeometry x="255" y="140" width="620" height="520" as="geometry" />
        </mxCell>
        <mxCell id="dU-7Wj_MFPhN0eYo4g7a-3" value="" style="rounded=0;whiteSpace=wrap;html=1;fillColor=none;dashed=1;strokeColor=light-dark(#a19b9b, #ededed);" vertex="1" parent="1">
          <mxGeometry x="920" y="130" width="150" height="530" as="geometry" />
        </mxCell>
        <mxCell id="dU-7Wj_MFPhN0eYo4g7a-4" value="Source" style="rounded=1;whiteSpace=wrap;html=1;" vertex="1" parent="1">
          <mxGeometry x="90" y="120" width="80" height="30" as="geometry" />
        </mxCell>
        <mxCell id="dU-7Wj_MFPhN0eYo4g7a-5" value="Data Warehouse" style="rounded=1;whiteSpace=wrap;html=1;" vertex="1" parent="1">
          <mxGeometry x="545" y="120" width="110" height="30" as="geometry" />
        </mxCell>
        <mxCell id="dU-7Wj_MFPhN0eYo4g7a-6" value="Consume" style="rounded=1;whiteSpace=wrap;html=1;" vertex="1" parent="1">
          <mxGeometry x="940" y="120" width="110" height="30" as="geometry" />
        </mxCell>
        <mxCell id="dU-7Wj_MFPhN0eYo4g7a-7" value="Bronze Layer" style="rounded=0;whiteSpace=wrap;html=1;fillColor=#ffe6cc;strokeColor=#d79b00;" vertex="1" parent="1">
          <mxGeometry x="275" y="170" width="150" height="30" as="geometry" />
        </mxCell>
        <mxCell id="dU-7Wj_MFPhN0eYo4g7a-8" value="" style="rounded=0;whiteSpace=wrap;html=1;fillColor=none;strokeColor=#d79b00;" vertex="1" parent="1">
          <mxGeometry x="275" y="210" width="150" height="410" as="geometry" />
        </mxCell>
        <mxCell id="dU-7Wj_MFPhN0eYo4g7a-9" value="Silver Layer" style="rounded=0;whiteSpace=wrap;html=1;fillColor=#f5f5f5;strokeColor=#666666;fontColor=#333333;" vertex="1" parent="1">
          <mxGeometry x="475" y="170" width="170" height="30" as="geometry" />
        </mxCell>
        <mxCell id="dU-7Wj_MFPhN0eYo4g7a-10" value="" style="rounded=0;whiteSpace=wrap;html=1;fillColor=none;strokeColor=#C5C5C5;" vertex="1" parent="1">
          <mxGeometry x="475" y="210" width="170" height="410" as="geometry" />
        </mxCell>
        <mxCell id="dU-7Wj_MFPhN0eYo4g7a-11" value="Gold Layer" style="rounded=0;whiteSpace=wrap;html=1;fillColor=#fff2cc;strokeColor=#d6b656;" vertex="1" parent="1">
          <mxGeometry x="685" y="170" width="150" height="30" as="geometry" />
        </mxCell>
        <mxCell id="dU-7Wj_MFPhN0eYo4g7a-12" value="" style="rounded=0;whiteSpace=wrap;html=1;fillColor=none;strokeColor=#FFE599;" vertex="1" parent="1">
          <mxGeometry x="695" y="210" width="150" height="410" as="geometry" />
        </mxCell>
        <mxCell id="dU-7Wj_MFPhN0eYo4g7a-13" value="&lt;font style=&quot;font-size: 17px;&quot;&gt;CRM&lt;/font&gt;" style="image;aspect=fixed;html=1;points=[];align=center;fontSize=12;image=img/lib/azure2/general/Folder_Blank.svg;" vertex="1" parent="1">
          <mxGeometry x="93.44" y="250" width="52.11" height="42.29" as="geometry" />
        </mxCell>
        <mxCell id="dU-7Wj_MFPhN0eYo4g7a-14" value="" style="image;aspect=fixed;html=1;points=[];align=center;fontSize=12;image=img/lib/azure2/general/File.svg;" vertex="1" parent="1">
          <mxGeometry x="134.09000000000003" y="262.28999999999996" width="32.47" height="40" as="geometry" />
        </mxCell>
        <mxCell id="dU-7Wj_MFPhN0eYo4g7a-15" value="&lt;font style=&quot;font-size: 17px;&quot;&gt;ERP&lt;/font&gt;" style="image;aspect=fixed;html=1;points=[];align=center;fontSize=12;image=img/lib/azure2/general/Folder_Blank.svg;" vertex="1" parent="1">
          <mxGeometry x="96.88" y="337.71" width="52.11" height="42.29" as="geometry" />
        </mxCell>
        <mxCell id="dU-7Wj_MFPhN0eYo4g7a-16" value="" style="image;aspect=fixed;html=1;points=[];align=center;fontSize=12;image=img/lib/azure2/general/File.svg;" vertex="1" parent="1">
          <mxGeometry x="137.52999999999997" y="350" width="32.47" height="40" as="geometry" />
        </mxCell>
        <mxCell id="dU-7Wj_MFPhN0eYo4g7a-17" value="" style="endArrow=none;html=1;rounded=0;" edge="1" parent="1">
          <mxGeometry width="50" height="50" relative="1" as="geometry">
            <mxPoint x="75" y="430.00470588235294" as="sourcePoint" />
            <mxPoint x="185" y="430" as="targetPoint" />
          </mxGeometry>
        </mxCell>
        <mxCell id="dU-7Wj_MFPhN0eYo4g7a-18" value="&lt;b&gt;Object type :&lt;/b&gt; CSV File&lt;div&gt;&lt;br&gt;&lt;div&gt;&lt;b&gt;Interface :&lt;/b&gt; Files in Folder&lt;/div&gt;&lt;/div&gt;" style="text;html=1;align=center;verticalAlign=middle;whiteSpace=wrap;rounded=0;" vertex="1" parent="1">
          <mxGeometry x="50" y="470" width="160" height="30" as="geometry" />
        </mxCell>
        <mxCell id="dU-7Wj_MFPhN0eYo4g7a-19" value="" style="html=1;verticalLabelPosition=bottom;align=center;labelBackgroundColor=#ffffff;verticalAlign=top;strokeWidth=2;strokeColor=#d79b00;shadow=0;dashed=0;shape=mxgraph.ios7.icons.data;fillColor=#ffe6cc;" vertex="1" parent="1">
          <mxGeometry x="315" y="280" width="52" height="50" as="geometry" />
        </mxCell>
        <mxCell id="dU-7Wj_MFPhN0eYo4g7a-20" value="" style="html=1;verticalLabelPosition=bottom;align=center;labelBackgroundColor=#ffffff;verticalAlign=top;strokeWidth=2;strokeColor=#666666;shadow=0;dashed=0;shape=mxgraph.ios7.icons.data;fillColor=#f5f5f5;fontColor=#333333;" vertex="1" parent="1">
          <mxGeometry x="527" y="280" width="52" height="50" as="geometry" />
        </mxCell>
        <mxCell id="dU-7Wj_MFPhN0eYo4g7a-21" value="" style="html=1;verticalLabelPosition=bottom;align=center;labelBackgroundColor=#ffffff;verticalAlign=top;strokeWidth=2;strokeColor=#d6b656;shadow=0;dashed=0;shape=mxgraph.ios7.icons.data;fillColor=#fff2cc;" vertex="1" parent="1">
          <mxGeometry x="726" y="280" width="52" height="50" as="geometry" />
        </mxCell>
        <mxCell id="dU-7Wj_MFPhN0eYo4g7a-22" value="" style="shape=flexArrow;endArrow=classic;html=1;rounded=0;entryX=0.143;entryY=0.388;entryDx=0;entryDy=0;entryPerimeter=0;fillColor=#66B2FF;strokeColor=none;" edge="1" parent="1">
          <mxGeometry width="50" height="50" relative="1" as="geometry">
            <mxPoint x="184.98000000000002" y="311.3955823536541" as="sourcePoint" />
            <mxPoint x="295.02" y="310.00000000000006" as="targetPoint" />
          </mxGeometry>
        </mxCell>
        <mxCell id="dU-7Wj_MFPhN0eYo4g7a-23" value="" style="shape=flexArrow;endArrow=classic;html=1;rounded=0;strokeColor=#66B2FF;fillColor=#66B2FF;" edge="1" parent="1">
          <mxGeometry width="50" height="50" relative="1" as="geometry">
            <mxPoint x="405" y="305.7755823536541" as="sourcePoint" />
            <mxPoint x="505" y="306" as="targetPoint" />
          </mxGeometry>
        </mxCell>
        <mxCell id="dU-7Wj_MFPhN0eYo4g7a-24" value="" style="shape=flexArrow;endArrow=classic;html=1;rounded=0;fillColor=#66B2FF;strokeColor=#6c8ebf;exitX=0.765;exitY=0.23;exitDx=0;exitDy=0;exitPerimeter=0;" edge="1" parent="1" source="dU-7Wj_MFPhN0eYo4g7a-10">
          <mxGeometry width="50" height="50" relative="1" as="geometry">
            <mxPoint x="640" y="305.77558235365416" as="sourcePoint" />
            <mxPoint x="710" y="304.22" as="targetPoint" />
          </mxGeometry>
        </mxCell>
        <mxCell id="dU-7Wj_MFPhN0eYo4g7a-25" value="Raw Data" style="text;html=1;align=center;verticalAlign=middle;whiteSpace=wrap;rounded=0;" vertex="1" parent="1">
          <mxGeometry x="311" y="330" width="60" height="30" as="geometry" />
        </mxCell>
        <mxCell id="dU-7Wj_MFPhN0eYo4g7a-26" value="Clean, Standardize data" style="text;html=1;align=center;verticalAlign=middle;whiteSpace=wrap;rounded=0;" vertex="1" parent="1">
          <mxGeometry x="491" y="325" width="124" height="40" as="geometry" />
        </mxCell>
        <mxCell id="dU-7Wj_MFPhN0eYo4g7a-27" value="Buisness Ready Data" style="text;html=1;align=center;verticalAlign=middle;whiteSpace=wrap;rounded=0;" vertex="1" parent="1">
          <mxGeometry x="692" y="330" width="136" height="30" as="geometry" />
        </mxCell>
        <mxCell id="dU-7Wj_MFPhN0eYo4g7a-28" value="&lt;div style=&quot;text-align: left;&quot;&gt;&lt;b style=&quot;background-color: transparent; color: light-dark(rgb(0, 0, 0), rgb(255, 255, 255));&quot;&gt;Object type :&lt;/b&gt;&lt;span style=&quot;background-color: transparent; color: light-dark(rgb(0, 0, 0), rgb(255, 255, 255));&quot;&gt; CSV File&lt;/span&gt;&lt;/div&gt;&lt;div&gt;&lt;div style=&quot;text-align: left;&quot;&gt;&lt;b style=&quot;background-color: transparent; color: light-dark(rgb(0, 0, 0), rgb(255, 255, 255));&quot;&gt;&lt;br&gt;&lt;/b&gt;&lt;/div&gt;&lt;div style=&quot;text-align: left;&quot;&gt;&lt;b style=&quot;background-color: transparent; color: light-dark(rgb(0, 0, 0), rgb(255, 255, 255));&quot;&gt;Load:&lt;/b&gt;&lt;/div&gt;&lt;/div&gt;&lt;div style=&quot;text-align: left;&quot;&gt;&lt;ul&gt;&lt;li&gt;Batch Processing&lt;/li&gt;&lt;li&gt;Full Load&lt;/li&gt;&lt;li&gt;Truncate and Insert&lt;/li&gt;&lt;/ul&gt;&lt;/div&gt;&lt;div style=&quot;text-align: left;&quot;&gt;&lt;b&gt;Transformation:&lt;/b&gt;&lt;/div&gt;&lt;div style=&quot;text-align: left;&quot;&gt;&lt;ul&gt;&lt;li&gt;Data Cleansing&lt;/li&gt;&lt;li&gt;Data Standrization&lt;/li&gt;&lt;li&gt;Data Normalization&lt;/li&gt;&lt;li&gt;Derived Column&lt;/li&gt;&lt;li&gt;Data Enrichment&lt;/li&gt;&lt;/ul&gt;&lt;/div&gt;" style="text;html=1;align=center;verticalAlign=middle;whiteSpace=wrap;rounded=0;" vertex="1" parent="1">
          <mxGeometry x="491" y="445" width="150" height="100" as="geometry" />
        </mxCell>
        <mxCell id="dU-7Wj_MFPhN0eYo4g7a-29" value="" style="endArrow=none;html=1;rounded=0;fillColor=#ffe6cc;strokeColor=#d79b00;" edge="1" parent="1">
          <mxGeometry width="50" height="50" relative="1" as="geometry">
            <mxPoint x="286" y="369.29470588235296" as="sourcePoint" />
            <mxPoint x="396" y="369.29" as="targetPoint" />
          </mxGeometry>
        </mxCell>
        <mxCell id="dU-7Wj_MFPhN0eYo4g7a-30" value="" style="endArrow=none;html=1;rounded=0;fillColor=#f5f5f5;strokeColor=#666666;" edge="1" parent="1">
          <mxGeometry width="50" height="50" relative="1" as="geometry">
            <mxPoint x="490" y="369.29470588235296" as="sourcePoint" />
            <mxPoint x="600" y="369.29" as="targetPoint" />
          </mxGeometry>
        </mxCell>
        <mxCell id="dU-7Wj_MFPhN0eYo4g7a-31" value="" style="endArrow=none;html=1;rounded=0;fillColor=#fff2cc;strokeColor=#d6b656;" edge="1" parent="1">
          <mxGeometry width="50" height="50" relative="1" as="geometry">
            <mxPoint x="697" y="369.29470588235296" as="sourcePoint" />
            <mxPoint x="807" y="369.29" as="targetPoint" />
          </mxGeometry>
        </mxCell>
        <mxCell id="dU-7Wj_MFPhN0eYo4g7a-32" value="&lt;div style=&quot;text-align: left;&quot;&gt;&lt;b style=&quot;background-color: transparent; color: light-dark(rgb(0, 0, 0), rgb(255, 255, 255));&quot;&gt;Object type :&lt;/b&gt;&lt;span style=&quot;background-color: transparent; color: light-dark(rgb(0, 0, 0), rgb(255, 255, 255));&quot;&gt; Table&lt;/span&gt;&lt;/div&gt;&lt;div&gt;&lt;div style=&quot;text-align: left;&quot;&gt;&lt;b style=&quot;background-color: transparent; color: light-dark(rgb(0, 0, 0), rgb(255, 255, 255));&quot;&gt;&lt;br&gt;&lt;/b&gt;&lt;/div&gt;&lt;div style=&quot;text-align: left;&quot;&gt;&lt;b style=&quot;background-color: transparent; color: light-dark(rgb(0, 0, 0), rgb(255, 255, 255));&quot;&gt;Load:&lt;/b&gt;&lt;/div&gt;&lt;/div&gt;&lt;div style=&quot;text-align: left;&quot;&gt;&lt;ul&gt;&lt;li&gt;Batch Processing&lt;/li&gt;&lt;li&gt;Full Load&lt;/li&gt;&lt;li&gt;Truncate and Insert&lt;/li&gt;&lt;/ul&gt;&lt;/div&gt;&lt;div style=&quot;text-align: left;&quot;&gt;&lt;b&gt;No Transformation&lt;/b&gt;&lt;/div&gt;" style="text;html=1;align=center;verticalAlign=middle;whiteSpace=wrap;rounded=0;" vertex="1" parent="1">
          <mxGeometry x="278" y="400" width="144" height="100" as="geometry" />
        </mxCell>
        <mxCell id="dU-7Wj_MFPhN0eYo4g7a-33" value="&lt;b&gt;Data Model : &lt;/b&gt;None (as-is)" style="text;html=1;align=center;verticalAlign=middle;whiteSpace=wrap;rounded=0;" vertex="1" parent="1">
          <mxGeometry x="480" y="590" width="160" height="30" as="geometry" />
        </mxCell>
        <mxCell id="dU-7Wj_MFPhN0eYo4g7a-34" value="&lt;b&gt;Data Model : &lt;/b&gt;None (as-is)" style="text;html=1;align=center;verticalAlign=middle;whiteSpace=wrap;rounded=0;" vertex="1" parent="1">
          <mxGeometry x="274" y="530" width="152" height="20" as="geometry" />
        </mxCell>
        <mxCell id="dU-7Wj_MFPhN0eYo4g7a-35" value="&lt;div style=&quot;text-align: left;&quot;&gt;&lt;b style=&quot;background-color: transparent; color: light-dark(rgb(0, 0, 0), rgb(255, 255, 255));&quot;&gt;Object type :&lt;/b&gt;&lt;span style=&quot;background-color: transparent; color: light-dark(rgb(0, 0, 0), rgb(255, 255, 255));&quot;&gt; View&lt;/span&gt;&lt;/div&gt;&lt;div style=&quot;text-align: left;&quot;&gt;&lt;br&gt;&lt;/div&gt;&lt;div style=&quot;text-align: left;&quot;&gt;&lt;b&gt;No Load&lt;/b&gt;&lt;/div&gt;&lt;div&gt;&lt;div style=&quot;text-align: left;&quot;&gt;&lt;b style=&quot;background-color: transparent; color: light-dark(rgb(0, 0, 0), rgb(255, 255, 255));&quot;&gt;&lt;br&gt;&lt;/b&gt;&lt;/div&gt;&lt;div style=&quot;text-align: left;&quot;&gt;&lt;b style=&quot;background-color: transparent; color: light-dark(rgb(0, 0, 0), rgb(255, 255, 255));&quot;&gt;Transformation:&lt;/b&gt;&lt;/div&gt;&lt;/div&gt;&lt;div style=&quot;text-align: left;&quot;&gt;&lt;ul&gt;&lt;li&gt;Data Integration&lt;/li&gt;&lt;li&gt;Aggregation&lt;/li&gt;&lt;li&gt;Buisness Logic&lt;/li&gt;&lt;/ul&gt;&lt;/div&gt;" style="text;html=1;align=center;verticalAlign=middle;whiteSpace=wrap;rounded=0;" vertex="1" parent="1">
          <mxGeometry x="695" y="400" width="144" height="100" as="geometry" />
        </mxCell>
        <mxCell id="dU-7Wj_MFPhN0eYo4g7a-36" value="&lt;div style=&quot;&quot;&gt;&lt;b style=&quot;background-color: transparent; color: light-dark(rgb(0, 0, 0), rgb(255, 255, 255));&quot;&gt;Data Model :&amp;nbsp;&lt;/b&gt;&lt;/div&gt;&lt;div&gt;&lt;ul&gt;&lt;li&gt;Star Schema&lt;/li&gt;&lt;li&gt;Flat Table&amp;nbsp;&lt;/li&gt;&lt;li&gt;Aggregate Table&lt;/li&gt;&lt;/ul&gt;&lt;/div&gt;" style="text;html=1;align=left;verticalAlign=middle;whiteSpace=wrap;rounded=0;" vertex="1" parent="1">
          <mxGeometry x="706" y="545" width="146" height="30" as="geometry" />
        </mxCell>
        <mxCell id="dU-7Wj_MFPhN0eYo4g7a-37" value="" style="shape=flexArrow;endArrow=classic;html=1;rounded=0;strokeColor=#66B2FF;fillColor=#66B2FF;" edge="1" parent="1">
          <mxGeometry width="50" height="50" relative="1" as="geometry">
            <mxPoint x="835" y="302.29" as="sourcePoint" />
            <mxPoint x="935" y="302.5144176463459" as="targetPoint" />
          </mxGeometry>
        </mxCell>
        <mxCell id="dU-7Wj_MFPhN0eYo4g7a-38" value="&lt;b&gt;BI Reporting&lt;/b&gt;" style="image;aspect=fixed;html=1;points=[];align=center;fontSize=12;image=img/lib/azure2/power_platform/PowerBI.svg;" vertex="1" parent="1">
          <mxGeometry x="969.5" y="200" width="51" height="68" as="geometry" />
        </mxCell>
        <mxCell id="dU-7Wj_MFPhN0eYo4g7a-39" value="" style="sketch=0;outlineConnect=0;fontColor=#232F3E;gradientColor=none;fillColor=#232F3D;strokeColor=none;dashed=0;verticalLabelPosition=bottom;verticalAlign=top;align=center;html=1;fontSize=12;fontStyle=0;aspect=fixed;pointerEvents=1;shape=mxgraph.aws4.metrics;" vertex="1" parent="1">
          <mxGeometry x="970" y="360" width="32.96" height="30" as="geometry" />
        </mxCell>
        <mxCell id="dU-7Wj_MFPhN0eYo4g7a-40" value="&lt;b&gt;AD-HoC&lt;/b&gt;&lt;div&gt;&lt;b&gt;SQL Quaries&lt;/b&gt;&lt;/div&gt;" style="sketch=0;outlineConnect=0;fontColor=#232F3E;gradientColor=none;fillColor=#232F3D;strokeColor=none;dashed=0;verticalLabelPosition=bottom;verticalAlign=top;align=center;html=1;fontSize=12;fontStyle=0;aspect=fixed;pointerEvents=1;shape=mxgraph.aws4.magnifying_glass_2;" vertex="1" parent="1">
          <mxGeometry x="958.5" y="350" width="73" height="73" as="geometry" />
        </mxCell>
        <mxCell id="dU-7Wj_MFPhN0eYo4g7a-42" value="&lt;b&gt;Machine Learning&lt;/b&gt;" style="editableCssRules=.*;html=1;shape=image;verticalLabelPosition=bottom;labelBackgroundColor=#ffffff;verticalAlign=top;aspect=fixed;imageAspect=0;image=data:image/svg+xml,PHN2ZyB4bWxucz0iaHR0cDovL3d3dy53My5vcmcvMjAwMC9zdmciIHhtbG5zOnY9Imh0dHBzOi8vdmVjdGEuaW8vbmFubyIgd2lkdGg9IjE2Ljk3OTk5OTU0MjIzNjMyOCIgaGVpZ2h0PSIyMCIgdmlld0JveD0iMCAwIDE2Ljk3OTk5OTU0MjIzNjMyOCAyMCI+JiN4YTsJPHN0eWxlIHR5cGU9InRleHQvY3NzIj4mI3hhOwkuc3Qwe2ZpbGw6IzY2OWRmNjt9JiN4YTsJLnN0MXtmaWxsOiM0Mjg1ZjQ7fSYjeGE7CS5zdDJ7ZmlsbDojYWVjYmZhO30mI3hhOwk8L3N0eWxlPiYjeGE7CTxnIGNsYXNzPSJzdDAiPiYjeGE7CQk8cGF0aCBkPSJNOC40OSAxMC4yOUwuMjQgNS4zNSA4LjQ5LjU4bDguMjQgNC42N3pNMS43NiA1LjM2bDYuNzIgNCA2LjcyLTQuMTEtNi43MS0zLjc4eiIvPiYjeGE7CQk8cGF0aCBkPSJNOC40OSAxOS40NEwuMjEgMTMuODkgOC40OSA5LjNsOC4xNSA0LjY0em0tNi44LTUuNWw2LjggNC41NiA2LjctNC41LTYuNy0zLjgyeiIvPiYjeGE7CTwvZz4mI3hhOwk8ZyBjbGFzcz0ic3QxIj4mI3hhOwkJPHBhdGggZD0iTS42MTMgNS41MDJsLjY3NS0uMzcxIDcuNDc3IDEzLjYtLjY3NS4zNzF6Ii8+JiN4YTsJCTxwYXRoIGQ9Ik04LjE5NCAxOC44MjZsNy4zMDEtMTMuNTU5LjY3OC4zNjUtNy4zMDEgMTMuNTU5ek0uNzE2IDEzLjY4N0w4LjA5Ni45MDRsLjY2Ny4zODUtNy4zOCAxMi43ODN6Ii8+JiN4YTsJCTxwYXRoIGQ9Ik04LjE5NCAxLjIxNGwuNjY5LS4zODEgNy40MDUgMTIuOTg3LS42NjkuMzgxeiIvPiYjeGE7CQk8cGF0aCBkPSJNOC4xMy45NmguNzdWMTguOWgtLjc3ek0uNTUgNS40M2guNzd2OC42NkguNTV6bTE0Ljk3LS4wOWguNzdWMTRoLS43N3oiLz4mI3hhOwk8L2c+JiN4YTsJPGcgY2xhc3M9InN0MiI+JiN4YTsJCTxjaXJjbGUgY3g9IjguNTIiIGN5PSIxLjA3IiByPSIxLjA3Ii8+JiN4YTsJCTxjaXJjbGUgY3g9IjE1LjkxIiBjeT0iNS4zNCIgcj0iMS4wNyIvPiYjeGE7CQk8Y2lyY2xlIGN4PSIxLjA3IiBjeT0iNS4zNCIgcj0iMS4wNyIvPiYjeGE7CQk8Y2lyY2xlIGN4PSI4LjUyIiBjeT0iOS45MyIgcj0iMS42OCIvPiYjeGE7CQk8Y2lyY2xlIGN4PSIxNS45MSIgY3k9IjEzLjk0IiByPSIxLjA3Ii8+JiN4YTsJCTxjaXJjbGUgY3g9IjEuMDciIGN5PSIxMy45NCIgcj0iMS4wNyIvPiYjeGE7CQk8Y2lyY2xlIGN4PSI4LjUyIiBjeT0iMTguOTMiIHI9IjEuMDciLz4mI3hhOwkJPHBhdGggZD0iTTguNDkgMTAuMjlMLjI0IDUuMzUgOC40OS41OGw4LjI0IDQuNjd6TTEuNzYgNS4zNmw2LjcyIDQgNi43Mi00LjExLTYuNzEtMy43OHoiLz4mI3hhOwkJPHBhdGggZD0iTTguNDkgMTkuNDRMLjIxIDEzLjg5IDguNDkgOS4zbDguMTUgNC42NHptLTYuOC01LjVsNi44IDQuNTYgNi43LTQuNS02LjctMy44MnoiLz4mI3hhOwkJPHBhdGggZD0iTS42MTMgNS41MDJsLjY3NS0uMzcxIDcuNDc3IDEzLjYtLjY3NS4zNzF6Ii8+JiN4YTsJCTxwYXRoIGQ9Ik04LjE5NCAxOC44MjZsNy4zMDEtMTMuNTU5LjY3OC4zNjUtNy4zMDEgMTMuNTU5ek0uNzE2IDEzLjY4N0w4LjA5Ni45MDRsLjY2Ny4zODUtNy4zOCAxMi43ODN6Ii8+JiN4YTsJCTxwYXRoIGQ9Ik04LjE5NCAxLjIxNGwuNjY5LS4zODEgNy40MDUgMTIuOTg3LS42NjkuMzgxeiIvPiYjeGE7CQk8cGF0aCBkPSJNOC4xMy45NmguNzdWMTguOWgtLjc3ek0uNTUgNS40M2guNzd2OC42NkguNTV6bTE0Ljk3LS4wOWguNzdWMTRoLS43N3oiLz4mI3hhOwk8L2c+JiN4YTsJPGcgY2xhc3M9InN0MCI+JiN4YTsJCTxjaXJjbGUgY3g9IjguNTIiIGN5PSIxLjA3IiByPSIxLjA3Ii8+JiN4YTsJCTxjaXJjbGUgY3g9IjE1LjkxIiBjeT0iNS4zNCIgcj0iMS4wNyIvPiYjeGE7CQk8Y2lyY2xlIGN4PSIxLjA3IiBjeT0iNS4zNCIgcj0iMS4wNyIvPiYjeGE7CQk8Y2lyY2xlIGN4PSI4LjUyIiBjeT0iOS45MyIgcj0iMS42OCIvPiYjeGE7CQk8Y2lyY2xlIGN4PSIxNS45MSIgY3k9IjEzLjk0IiByPSIxLjA3Ii8+JiN4YTsJCTxjaXJjbGUgY3g9IjEuMDciIGN5PSIxMy45NCIgcj0iMS4wNyIvPiYjeGE7CQk8Y2lyY2xlIGN4PSI4LjUyIiBjeT0iMTguOTMiIHI9IjEuMDciLz4mI3hhOwk8L2c+JiN4YTs8L3N2Zz4=;" vertex="1" parent="1">
          <mxGeometry x="958.5" y="503.53" width="62" height="72.94" as="geometry" />
        </mxCell>
        <mxCell id="dU-7Wj_MFPhN0eYo4g7a-43" value="" style="sketch=0;outlineConnect=0;fontColor=#232F3E;gradientColor=none;fillColor=#C925D1;strokeColor=none;dashed=0;verticalLabelPosition=bottom;verticalAlign=top;align=center;html=1;fontSize=12;fontStyle=0;aspect=fixed;pointerEvents=1;shape=mxgraph.aws4.rds_sql_server_instance;opacity=60;" vertex="1" parent="1">
          <mxGeometry x="238" y="80" width="78" height="78" as="geometry" />
        </mxCell>
      </root>
    </mxGraphModel>
  </diagram>
</mxfile>
